<?xml version="1.0" encoding="UTF-8"?>
<svg id="SUTR_LOGO_BLACK" data-name="SUTR LOGO BLACK" xmlns="http://www.w3.org/2000/svg" viewBox="0 0 1200 1200">
  <defs>
    <style>
      .cls-1 {
        fill-rule: evenodd;
      }
    </style>
  </defs>
  <path id="TRA" class="cls-1" d="M1029.8,300.7l31.4-3.1,63.8,64.8,43.4-136.1h-494.9l102,81.4,192-11.5-308.4,33.6,64.3,154.3,45.4-12,101,39.8-442.1,311,358.3,138.7,132.7-163.9,261.1,175.4-150.2-672.5ZM790.6,292.1l-61-49.4h417.1l-34.3,71.5-40.3-32.4-281.5,10.3ZM932.9,568.6l-154.6,326.2-251.3-94.1,393.8-306-135.6-47.5-51.8,17-51.1-123.8,97.7-12.5,116.4,90.2-23.8-97.4,128.6-17.5,114,580.3-171.4-111.4-11-203.5Z"/>
  <path id="NEEDLE" class="cls-1" d="M284.6,336.5l10.6,28.1,559.4-58.6-570,30.5Z"/>
  <path id="U" class="cls-1" d="M452.2,352.1l72.7,375.8,229.4-154.6-105.8-242.6-68.2,7.7,46.1,177.8-42,14.4-41-188.9-91.2,10.3Z"/>
  <path id="S" class="cls-1" d="M114.2,226.3l134.9,256.6,122.4-47.8v43l-139.2,48.7-112.1-234.7L19.7,430.3l163.4,529.4,325.2-221.8-75.8-383.5-140.9,15.8-14.9-37.9,479.3-24.5-101.8-81.6H114.2Z"/>
</svg>